# xmcd
#
# Track frame offsets:
#	150
#	15343
#	38584
#	50253
#	61106
#	81255
#	92856
#	106971
#	130162
#	151591
#	180482
#
# Disc length: 2649 seconds
# Revision: 0
# Processed by: cddbd v1.5.2PL0 Copyright (c) Steve Scherf et al.
# Submitted via: dBpowerAMP V12.0
#
DISCID=740a570b
DTITLE=Denver - Rowdy Love
DYEAR=2014
DGENRE=Country/Rock
TTITLE0=Lonely, Lonesome and Alone
TTITLE1=Carry On
TTITLE2=A Way Out
TTITLE3=Bird in the Morning Dew
TTITLE4=Prison Song
TTITLE5=Bound to Lose
TTITLE6=Rowdy Love
TTITLE7=Sammyville
TTITLE8=The Shame
TTITLE9=Split Ditch
TTITLE10=Halfway There
EXTD=
EXTT0=
EXTT1=
EXTT2=
EXTT3=
EXTT4=
EXTT5=
EXTT6=
EXTT7=
EXTT8=
EXTT9=
EXTT10=
PLAYORDER=
